<svg aria-hidden="true" style="position: absolute; width: 0; height: 0; overflow: hidden;" version="1.1"
    xmlns="http://www.w3.org/2000/svg" xmlns:xlink="http://www.w3.org/1999/xlink">
    <defs>
        <symbol id="icon-ar-button" viewBox="0 0 30 32">
            <path
                d="M30.118 15.991l-1.686-1.686-12.175 12.193v-25.557h-2.396v25.539l-12.175-12.175-1.686 1.686 15.068 15.068 15.050-15.068z">
            </path>
        </symbol>
        <symbol id="icon-ar-header" viewBox="0 0 32 32">
            <path
                d="M5.68 12.838c-0.463-0.463-0.463-1.213 0-1.676 0.421-0.421 1.079-0.459 1.543-0.115l0.133 0.115 8.643 8.643 8.643-8.643c0.421-0.421 1.079-0.459 1.543-0.115l0.133 0.115c0.421 0.421 0.459 1.079 0.115 1.543l-0.115 0.133-9.482 9.482c-0.421 0.421-1.079 0.459-1.543 0.115l-0.133-0.115-9.482-9.482z">
            </path>
        </symbol>
        <symbol id="icon-ar-left-hero" viewBox="0 0 36 32">
            <path
                d="M1.060 14.586c-0.781 0.781-0.781 2.047 0 2.829l12.728 12.728c0.781 0.781 2.047 0.781 2.828 0s0.781-2.047 0-2.828l-11.314-11.314 11.314-11.314c0.781-0.781 0.781-2.047 0-2.828s-2.047-0.781-2.828 0l-12.728 12.728zM34.859 14h-32.385v4h32.385v-4z">
            </path>
        </symbol>
        <symbol id="icon-ar-right-hero" viewBox="0 0 36 32">
            <path
                d="M34.94 17.414c0.781-0.781 0.781-2.047 0-2.829l-12.728-12.728c-0.781-0.781-2.047-0.781-2.828 0s-0.781 2.047 0 2.828l11.314 11.314-11.314 11.314c-0.781 0.781-0.781 2.047 0 2.828s2.047 0.781 2.828 0l12.728-12.728zM1.141 18h32.385v-4h-32.385v4z">
            </path>
        </symbol>
        <symbol id="icon-eye" viewBox="0 0 36 32">
            <path d="M0.242 5.818h34.909v21.062h-34.909v-21.062z"></path>
        </symbol>
        </symbol>
    </defs>
</svg>